# xmcd CD database file
#
# Track frame offsets:
#	150
#	17410
#	33345
#	55280
#	74707
#	96590
#	114725
#	132597
#	152327
#	174045
#	202000
#	219605
#
# Disc length: 3228 seconds
#
# Revision: 0
# Processed by: cddbd v1.5.2PL0 Copyright (c) Steve Scherf et al.
# Submitted via: CDex 1.70beta2
#
DISCID=ac0c9a0c
DTITLE=COVER LOVER PEOJECT - BOSSA de DISCO
DYEAR=2005
DGENRE=Jazz
TTITLE0=Together Forever
TTITLE1=Merry Jane
TTITLE2=Dancing Queen
TTITLE3=Night Fever
TTITLE4=Don't You Want Me
TTITLE5=I Heard A Rumour
TTITLE6=Got To Be Real
TTITLE7=September
TTITLE8=Somebody Else's Guy
TTITLE9=Can't Take My Eyes Off You
TTITLE10=Rydeen
TTITLE11=Long Train Runnin'
EXTD=YEAR: 2005
EXTT0=
EXTT1=
EXTT2=
EXTT3=
EXTT4=
EXTT5=
EXTT6=
EXTT7=
EXTT8=
EXTT9=
EXTT10=
EXTT11=
PLAYORDER=
